{"title":"Image Of Bruce Lee.mp4","uid":11422558,"size":1962685531,"categoryP":"video","categoryS":"movies","magnet":"?xt=urn:btih:a64f570b78462f5ed411d600b89b9ceefefe4059&amp;dn=Image+Of+Bruce+Lee.mp4&amp;tr=udp%3A%2F%2Ftracker.openbittorrent.com%3A80&amp;tr=udp%3A%2F%2Fopen.demonii.com%3A1337&amp;tr=udp%3A%2F%2Ftracker.coppersurfer.tk%3A6969&amp;tr=udp%3A%2F%2Fexodus.desync.com%3A6969","seeders":0,"leechers":1,"uploader":"qtwigg","files":-1,"time":1415633093,"description":"Plot: A secret agent based in Hong Kong goes after an international crime ring. The story is set in motion when a jeweler is robbed of a million dollars' worth of diamonds. Li chases after the thieves, and by and by catches up with them. \n\nOverview: Bruce Li plays an undercover detective sent in to unravel a counterfeit operation run by Han Ying Chieh (Fists Of Fury) and Bolo Yeung (Enter The Dragon). Bruce shines as an actor and dazzles his audience with an original display of martial arts talent in this action-packed martial arts adventure. \n\nCast: Ho Chung Tao (Bruce Li) || Dana || John Cheung (Ng Long) || Bolo Yeung (Yang Sze) || Han Ying Chieh\n\n Format : MPEG-4\n Format profile : Base Media / Version 2\n Codec ID : mp42\n File size : 1.83 GiB\n Duration : 1h 28mn\n Overall bit rate mode : Variable\n Overall bit rate : 2 946 Kbps\n Encoded date : UTC 2014-11-08 15:31:54\n Tagged date : UTC 2014-11-08 16:42:38\n Writing application : HandBrake 0.9.9 2013052900\n\n Video\n ID : 1\n Format : AVC\n Format/Info : Advanced Video Codec\n Format profile : &lt;a class=&quot;__cf_email__&quot; href=&quot;/cdn-cgi/l/email-protection&quot; data-cfemail=&quot;d59dbcb2bd9599e6fbe5&quot;&gt;[email&amp;#160;protected]&lt;/a&gt;&lt;script cf-hash='f9e31' type=&quot;text/javascript&quot;&gt;\n/* &lt;![CDATA[ */!function(){try{var t=&quot;currentScript&quot;in document?document.currentScript:function(){for(var t=document.getElementsByTagName(&quot;script&quot;),e=t.length;e--;)if(t[e].getAttribute(&quot;cf-hash&quot;))return t[e]}();if(t&amp;&amp;t.previousSibling){var e,r,n,i,c=t.previousSibling,a=c.getAttribute(&quot;data-cfemail&quot;);if(a){for(e=&quot;&quot;,r=parseInt(a.substr(0,2),16),n=2;a.length-n;n+=2)i=parseInt(a.substr(n,2),16)^r,e+=String.fromCharCode(i);e=document.createTextNode(e),c.parentNode.replaceChild(e,c)}}}catch(u){}}();/* ]]&gt; */&lt;/script&gt;\n Format settings, CABAC : Yes\n Format settings, ReFrames : 4 frames\n Codec ID : avc1\n Codec ID/Info : Advanced Video Coding\n Duration : 1h 28mn\n Bit rate : 2 750 Kbps\n Width : 720 pixels\n Height : 480 pixels\n Display aspect ratio : 4:3\n Frame rate mode : Constant\n Frame rate : 29.970 fps\n Standard : NTSC\n Color space : YUV\n Chroma subsampling : 4:2:0\n Bit depth : 8 bits\n Scan type : Progressive\n Bits/(Pixel*Frame) : 0.265\n Stream size : 1.71 GiB (93%)\n Writing library : x264 core 130 r2273 b3065e6\n\n Audio\n ID : 2\n Format : AAC\n Format/Info : Advanced Audio Codec\n Format profile : LC\n Codec ID : 40\n Duration : 1h 28mn\n Bit rate mode : Variable\n Bit rate : 192 Kbps\n Maximum bit rate : 241 Kbps\n Channel(s) : 2 channels\n Channel positions : Front: L R\n Sampling rate : 48.0 KHz\n Compression mode : Lossy\n Stream size : 122 MiB (7%)\n Language : English\n Encoded date : UTC 2014-11-08 15:31:54\n Tagged date : UTC 2014-11-08 16:42:38","torrent":{"xt":"urn:btih:a64f570b78462f5ed411d600b89b9ceefefe4059","amp;dn":"Image+Of+Bruce+Lee.mp4","amp;tr":["udp%3A%2F%2Ftracker.openbittorrent.com%3A80","udp%3A%2F%2Fopen.demonii.com%3A1337","udp%3A%2F%2Ftracker.coppersurfer.tk%3A6969","udp%3A%2F%2Fexodus.desync.com%3A6969"],"infoHash":"a64f570b78462f5ed411d600b89b9ceefefe4059","infoHashBuffer":{"type":"Buffer","data":[166,79,87,11,120,70,47,94,212,17,214,0,184,155,156,238,254,254,64,89]},"announce":[],"urlList":[]}}